<?xml version="1.0" standalone="no"?>
<!DOCTYPE svg PUBLIC "-//W3C//DTD SVG 20010904//EN"
 "http://www.w3.org/TR/2001/REC-SVG-20010904/DTD/svg10.dtd">
<svg version="1.0" xmlns="http://www.w3.org/2000/svg"
 width="701.000000pt" height="636.000000pt" viewBox="0 0 1601.000000 636.000000"
 preserveAspectRatio="xMidYMid meet">
<metadata>
Created by potrace 1.16, written by Peter Selinger 2001-2019
</metadata>
<g transform="translate(0.000000,636.000000) scale(0.100000,-0.100000)"
fill="#fff" stroke="none">
<path d="M11039 6331 l-24 -19 -5 -1361 -5 -1361 -367 204 c-202 112 -381 209
-399 215 -43 15 -93 14 -133 -3 -70 -29 -1672 -920 -1700 -945 -16 -14 -37
-44 -47 -66 -18 -38 -19 -86 -19 -980 0 -897 1 -942 19 -981 10 -23 34 -53 52
-66 28 -21 1542 -863 1659 -923 53 -27 100 -35 148 -24 55 12 1695 919 1740
962 18 17 37 47 43 67 6 23 9 819 7 2401 l-3 2366 -26 34 c-20 26 -129 91
-444 267 -263 146 -428 232 -445 232 -15 0 -38 -9 -51 -19z m-444 -3625 c204
-113 380 -217 393 -232 l23 -26 -3 -439 c-3 -424 -4 -439 -23 -457 -32 -31
-767 -433 -800 -438 -25 -4 -99 33 -420 211 -214 119 -396 224 -402 233 -10
12 -13 120 -13 462 0 413 1 448 18 463 9 8 188 111 397 227 349 193 383 210
420 206 29 -3 146 -63 410 -210z"/>
<path d="M1778 4009 c-32 -12 -1661 -913 -1700 -940 -14 -11 -36 -39 -47 -62
-21 -43 -21 -46 -21 -1326 l0 -1282 25 -24 c15 -15 36 -25 54 -25 20 0 152 71
428 231 219 127 413 243 432 257 63 47 61 16 61 851 l0 760 23 26 c32 38 774
445 811 445 33 0 780 -408 809 -441 16 -20 17 -72 17 -771 0 -533 3 -762 11
-789 7 -21 26 -51 43 -67 52 -50 840 -502 874 -502 16 0 40 9 53 19 l24 19 3
1279 c3 1412 7 1327 -61 1390 -29 27 -1623 915 -1703 949 -38 16 -96 17 -136
3z"/>
<path d="M14103 4005 c-75 -32 -1671 -920 -1697 -944 -16 -14 -37 -44 -47 -66
-18 -38 -19 -86 -19 -979 0 -935 0 -940 21 -983 12 -24 35 -54 53 -67 57 -43
1678 -936 1719 -947 29 -8 52 -7 85 1 51 13 813 432 843 463 28 30 26 101 -3
130 -13 13 -394 225 -847 472 -454 247 -833 457 -843 467 -17 17 -18 46 -18
462 0 408 1 445 18 465 28 33 775 441 808 441 31 0 771 -404 809 -441 19 -19
20 -35 23 -387 3 -359 3 -367 24 -389 44 -47 61 -39 481 204 429 248 450 261
478 307 18 29 19 54 19 390 0 344 -1 362 -21 403 -11 23 -33 51 -47 62 -44 31
-1669 928 -1703 940 -43 15 -97 13 -136 -4z"/>
<path d="M6454 3128 c282 -469 655 -1087 828 -1373 173 -286 333 -551 356
-590 l42 -70 0 925 c0 882 -1 927 -19 966 -10 23 -34 53 -52 67 -25 18 -1471
823 -1646 916 -15 7 156 -286 491 -841z"/>
<path d="M4010 1972 c0 -902 0 -924 20 -962 11 -21 34 -50 52 -63 18 -13 398
-226 843 -472 446 -246 815 -450 820 -453 6 -3 5 1 -1 9 -7 8 -271 444 -587
969 -886 1471 -1129 1874 -1138 1885 -5 5 -9 -397 -9 -913z"/>
<path d="M14013 2268 l-143 -80 0 -168 0 -169 28 -19 c38 -27 268 -152 278
-152 16 0 289 152 302 168 8 11 12 61 12 169 0 133 -2 155 -18 171 -27 27
-277 162 -298 161 -11 0 -83 -36 -161 -81z"/>
</g>
</svg>
